<svg width="25" height="24" viewBox="0 0 25 24" fill="none" xmlns="http://www.w3.org/2000/svg">
<g opacity="0.8" clip-path="url(#clip0_2042_615)">
<path d="M23.4722 6.42C23.3534 5.94541 23.1115 5.51057 22.7709 5.15941C22.4302 4.80824 22.003 4.55318 21.5322 4.42C19.8122 4 12.9322 4 12.9322 4C12.9322 4 6.05221 4 4.33221 4.46C3.86146 4.59318 3.43419 4.84824 3.09356 5.19941C2.75293 5.55057 2.511 5.98541 2.39221 6.46C2.07743 8.20556 1.92345 9.97631 1.93221 11.75C1.92099 13.537 2.07498 15.3213 2.39221 17.08C2.52317 17.5398 2.77052 17.9581 3.11036 18.2945C3.45019 18.6308 3.87103 18.8738 4.33221 19C6.05221 19.46 12.9322 19.46 12.9322 19.46C12.9322 19.46 19.8122 19.46 21.5322 19C22.003 18.8668 22.4302 18.6118 22.7709 18.2606C23.1115 17.9094 23.3534 17.4746 23.4722 17C23.7846 15.2676 23.9385 13.5103 23.9322 11.75C23.9434 9.96295 23.7894 8.1787 23.4722 6.42Z" stroke="white" stroke-width="1.5" stroke-linecap="round" stroke-linejoin="round"/>
<path d="M10.6826 15.02L16.4326 11.75L10.6826 8.47998V15.02Z" fill="white" stroke="white" stroke-linecap="round" stroke-linejoin="round"/>
</g>
<defs>
<clipPath id="clip0_2042_615">
<rect width="24" height="24" fill="white" transform="translate(0.932617)"/>
</clipPath>
</defs>
</svg>
